<?xml version="1.0" encoding="UTF-8"?>
<!DOCTYPE svg PUBLIC "-//W3C//DTD SVG 1.1//EN" "http://www.w3.org/Graphics/SVG/1.1/DTD/svg11.dtd">
<svg xmlns="http://www.w3.org/2000/svg" version="1.1" width="256px" height="256px" style="shape-rendering:geometricPrecision; text-rendering:geometricPrecision; image-rendering:optimizeQuality; fill-rule:evenodd; clip-rule:evenodd" xmlns:xlink="http://www.w3.org/1999/xlink">
<g><path style="opacity:1" fill="#1d98e0" d="M -0.5,-0.5 C 84.8333,-0.5 170.167,-0.5 255.5,-0.5C 255.5,84.8333 255.5,170.167 255.5,255.5C 170.167,255.5 84.8333,255.5 -0.5,255.5C -0.5,170.167 -0.5,84.8333 -0.5,-0.5 Z"/></g>
<g><path style="opacity:1" fill="#bdd1fc" d="M 229.5,84.5 C 224.478,84.1852 221.478,86.5186 220.5,91.5C 219.532,93.6074 219.198,95.9407 219.5,98.5C 219.077,99.2646 218.743,100.098 218.5,101C 219.414,102.406 220.08,103.906 220.5,105.5C 219.167,106.5 217.833,107.5 216.5,108.5C 215.079,105.991 213.412,103.657 211.5,101.5C 211.337,92.1007 212.004,82.7674 213.5,73.5C 213.402,70.4492 213.069,67.4492 212.5,64.5C 213.777,61.4475 215.444,58.6141 217.5,56C 218.944,55.2195 220.277,55.3861 221.5,56.5C 226.498,65.455 229.164,74.7883 229.5,84.5 Z"/></g>
<g><path style="opacity:1" fill="#bcd0fc" d="M 140.5,80.5 C 136.56,82.6543 135.726,85.6543 138,89.5C 138.671,90.2524 139.504,90.5858 140.5,90.5C 140.5,92.1667 140.5,93.8333 140.5,95.5C 139.5,95.8333 138.833,96.5 138.5,97.5C 132.82,97.4128 129.32,100.079 128,105.5C 127.19,110.257 127.524,114.924 129,119.5C 130.385,122.386 132.551,124.386 135.5,125.5C 136.171,126.847 136.171,128.014 135.5,129C 133.866,129.494 132.199,129.66 130.5,129.5C 121.611,114.945 119.111,99.2787 123,82.5C 126.826,56.8162 132.66,56.1496 140.5,80.5 Z"/></g>
<g><path style="opacity:1" fill="#7a97f3" d="M 212.5,64.5 C 213.069,67.4492 213.402,70.4492 213.5,73.5C 212.004,82.7674 211.337,92.1007 211.5,101.5C 210.508,101.672 209.842,101.338 209.5,100.5C 210.156,89.2586 210.156,78.0919 209.5,67C 189.833,66.3333 170.167,66.3333 150.5,67C 149.136,70.6827 148.469,74.516 148.5,78.5C 147.833,78.1667 147.167,77.8333 146.5,77.5C 146.999,73.5101 147.499,69.5101 148,65.5C 148.5,65 149,64.5 149.5,64C 170.489,64.2533 191.489,64.4199 212.5,64.5 Z"/></g>
<g><path style="opacity:1" fill="#ebeefd" d="M 209.5,100.5 C 209.167,100.5 208.833,100.5 208.5,100.5C 208.657,99.1266 208.49,97.7932 208,96.5C 207.667,96.8333 207.333,97.1667 207,97.5C 206.167,96.5 205.333,95.5 204.5,94.5C 203.912,96.0116 203.578,97.3449 203.5,98.5C 202.5,98.5 201.5,98.5 200.5,98.5C 200.029,96.4214 199.363,94.4214 198.5,92.5C 199.914,90.9458 201.581,89.6125 203.5,88.5C 201.983,82.1651 197.983,79.6651 191.5,81C 190.419,82.7106 190.752,84.2106 192.5,85.5C 188.606,88.9046 188.773,91.9046 193,94.5C 193.579,95.9285 193.412,97.2618 192.5,98.5C 189.167,98.5 187.5,100.167 187.5,103.5C 185.5,102.167 183.5,102.167 181.5,103.5C 180.448,103.649 179.448,103.483 178.5,103C 180.007,102.163 180.507,100.996 180,99.5C 178.519,100.471 177.685,101.804 177.5,103.5C 176.833,103.5 176.5,103.833 176.5,104.5C 174.852,105.81 173.186,107.143 171.5,108.5C 170.38,107.167 169.047,106.667 167.5,107C 169,108.5 170.5,110 172,111.5C 173.076,108.921 174.909,107.254 177.5,106.5C 177.5,106.833 177.5,107.167 177.5,107.5C 178.414,113.993 181.414,119.327 186.5,123.5C 188.5,123.5 190.5,123.5 192.5,123.5C 192.931,127.337 193.598,131.003 194.5,134.5C 194.5,135.5 194.5,136.5 194.5,137.5C 186.722,138.111 179.222,137.444 172,135.5C 165.59,136.478 159.09,136.811 152.5,136.5C 152.5,134.5 152.5,132.5 152.5,130.5C 154.459,120.607 154.959,110.607 154,100.5C 153.578,98.5743 152.411,97.5743 150.5,97.5C 149.432,96.5655 148.099,96.2322 146.5,96.5C 146.678,93.6781 147.345,91.0115 148.5,88.5C 148.272,86.7927 147.938,85.126 147.5,83.5C 148.301,81.9582 148.634,80.2915 148.5,78.5C 148.469,74.516 149.136,70.6827 150.5,67C 170.167,66.3333 189.833,66.3333 209.5,67C 210.156,78.0919 210.156,89.2586 209.5,100.5 Z"/></g>
<g><path style="opacity:1" fill="#93a8f5" d="M 152.5,72.5 C 163.674,71.176 175.007,71.176 186.5,72.5C 175.184,73.2426 163.85,73.2426 152.5,72.5 Z"/></g>
<g><path style="opacity:1" fill="#93a9f6" d="M 151.5,74.5 C 163.186,74.1678 174.852,74.5011 186.5,75.5C 180.667,75.8333 174.833,76.1667 169,76.5C 162.793,76.4958 156.96,75.8291 151.5,74.5 Z"/></g>
<g><path style="opacity:1" fill="#9db0f6" d="M 151.5,77.5 C 159.86,77.1688 168.193,77.5021 176.5,78.5C 172.333,78.8333 168.167,79.1667 164,79.5C 159.443,79.4915 155.276,78.8248 151.5,77.5 Z"/></g>
<g><path style="opacity:1" fill="#fbfdfe" d="M 106.5,80.5 C 108.833,80.5 111.167,80.5 113.5,80.5C 113.5,108.833 113.5,137.167 113.5,165.5C 111.167,165.5 108.833,165.5 106.5,165.5C 106.5,152.167 106.5,138.833 106.5,125.5C 90.3419,124.504 74.0085,124.17 57.5,124.5C 57.5,136.5 57.5,148.5 57.5,160.5C 59.4147,160.784 61.0813,160.451 62.5,159.5C 73.5834,157.047 79.25,150.047 79.5,138.5C 82.2469,138.187 84.9135,138.52 87.5,139.5C 84.9099,157.425 74.5766,166.425 56.5,166.5C 44.3413,166.84 35.1747,161.84 29,151.5C 26.8741,146.668 25.2075,141.668 24,136.5C 23.2148,125.464 23.5481,114.464 25,103.5C 31.715,83.3864 45.5483,75.5531 66.5,80C 79.4654,84.1262 86.132,92.9595 86.5,106.5C 84.1667,106.5 81.8333,106.5 79.5,106.5C 78.012,93.3448 70.6787,86.3448 57.5,85.5C 57.5,96.5 57.5,107.5 57.5,118.5C 73.8333,118.5 90.1667,118.5 106.5,118.5C 106.5,105.833 106.5,93.1667 106.5,80.5 Z"/></g>
<g><path style="opacity:1" fill="#180e6e" d="M 146.5,77.5 C 147.167,77.8333 147.833,78.1667 148.5,78.5C 148.634,80.2915 148.301,81.9582 147.5,83.5C 144.178,83.4978 141.511,84.8311 139.5,87.5C 139.977,88.4776 140.643,89.3109 141.5,90C 141.272,90.3988 140.938,90.5654 140.5,90.5C 139.504,90.5858 138.671,90.2524 138,89.5C 135.726,85.6543 136.56,82.6543 140.5,80.5C 142.887,80.0879 144.887,79.0879 146.5,77.5 Z"/></g>
<g><path style="opacity:1" fill="#c2e3f6" d="M 106.5,80.5 C 108.948,79.5269 111.615,79.1936 114.5,79.5C 114.831,108.338 114.498,137.005 113.5,165.5C 113.5,137.167 113.5,108.833 113.5,80.5C 111.167,80.5 108.833,80.5 106.5,80.5 Z"/></g>
<g><path style="opacity:1" fill="#21137e" d="M 198.5,92.5 C 196.158,92.2252 196.158,91.3919 198.5,90C 196.431,89.6758 196.098,88.8425 197.5,87.5C 195.978,86.438 194.312,85.7713 192.5,85.5C 190.752,84.2106 190.419,82.7106 191.5,81C 197.983,79.6651 201.983,82.1651 203.5,88.5C 201.581,89.6125 199.914,90.9458 198.5,92.5 Z"/></g>
<g><path style="opacity:1" fill="#f5a5a3" d="M 147.5,83.5 C 147.938,85.126 148.272,86.7927 148.5,88.5C 147.345,91.0115 146.678,93.6781 146.5,96.5C 144.379,96.6747 142.379,96.3414 140.5,95.5C 140.5,93.8333 140.5,92.1667 140.5,90.5C 140.938,90.5654 141.272,90.3988 141.5,90C 140.643,89.3109 139.977,88.4776 139.5,87.5C 141.511,84.8311 144.178,83.4978 147.5,83.5 Z"/></g>
<g><path style="opacity:1" fill="#2299e0" d="M 49.5,86.5 C 50.8333,110.833 50.8333,135.167 49.5,159.5C 42.8687,157.756 38.0354,153.756 35,147.5C 28.7662,130.352 29.0996,113.352 36,96.5C 39.0171,91.0832 43.5171,87.7499 49.5,86.5 Z"/></g>
<g><path style="opacity:1" fill="#c7e5f7" d="M 49.5,86.5 C 49.56,85.9569 49.8933,85.6236 50.5,85.5C 51.8333,110.5 51.8333,135.5 50.5,160.5C 49.8933,160.376 49.56,160.043 49.5,159.5C 50.8333,135.167 50.8333,110.833 49.5,86.5 Z"/></g>
<g><path style="opacity:1" fill="#160974" d="M 229.5,84.5 C 230.688,85.3636 231.855,86.3636 233,87.5C 233.176,91.6877 233.676,95.6877 234.5,99.5C 234.608,101.514 233.942,103.18 232.5,104.5C 231.609,103.89 230.609,103.557 229.5,103.5C 229.5,102.833 229.167,102.5 228.5,102.5C 228.489,100.453 228.156,98.4534 227.5,96.5C 228.249,94.9644 229.249,93.6311 230.5,92.5C 229.048,89.8785 226.881,88.2118 224,87.5C 222.628,88.9101 221.795,90.5767 221.5,92.5C 220.833,92.5 220.5,92.1667 220.5,91.5C 221.478,86.5186 224.478,84.1852 229.5,84.5 Z"/></g>
<g><path style="opacity:1" fill="#f3aba9" d="M 228.5,102.5 C 227.295,103.686 225.961,103.686 224.5,102.5C 224.913,99.6798 223.913,97.6798 221.5,96.5C 221.5,95.1667 221.5,93.8333 221.5,92.5C 221.795,90.5767 222.628,88.9101 224,87.5C 226.881,88.2118 229.048,89.8785 230.5,92.5C 229.249,93.6311 228.249,94.9644 227.5,96.5C 228.156,98.4534 228.489,100.453 228.5,102.5 Z"/></g>
<g><path style="opacity:1" fill="#fca39f" d="M 192.5,85.5 C 194.312,85.7713 195.978,86.438 197.5,87.5C 196.098,88.8425 196.431,89.6758 198.5,90C 196.158,91.3919 196.158,92.2252 198.5,92.5C 199.363,94.4214 200.029,96.4214 200.5,98.5C 200.209,99.6491 199.376,100.316 198,100.5C 196.061,100.046 194.228,99.379 192.5,98.5C 193.412,97.2618 193.579,95.9285 193,94.5C 188.773,91.9046 188.606,88.9046 192.5,85.5 Z"/></g>
<g><path style="opacity:1" fill="#7a73b9" d="M 220.5,91.5 C 220.5,92.1667 220.833,92.5 221.5,92.5C 221.5,93.8333 221.5,95.1667 221.5,96.5C 220.833,97.1667 220.167,97.8333 219.5,98.5C 219.198,95.9407 219.532,93.6074 220.5,91.5 Z"/></g>
<g><path style="opacity:1" fill="#90b2f8" d="M 237.5,110.5 C 235.833,108.5 234.167,106.5 232.5,104.5C 233.942,103.18 234.608,101.514 234.5,99.5C 237.562,95.805 241.562,93.9717 246.5,94C 242.548,99.0761 239.548,104.576 237.5,110.5 Z"/></g>
<g><path style="opacity:1" fill="#93a4ea" d="M 140.5,95.5 C 142.379,96.3414 144.379,96.6747 146.5,96.5C 148.099,96.2322 149.432,96.5655 150.5,97.5C 148.554,98.0347 147.554,99.368 147.5,101.5C 144.854,95.8727 143.52,96.206 143.5,102.5C 141.5,101.167 139.833,99.5 138.5,97.5C 138.833,96.5 139.5,95.8333 140.5,95.5 Z"/></g>
<g><path style="opacity:1" fill="#f3a7a9" d="M 208.5,100.5 C 208.5,101.167 208.5,101.833 208.5,102.5C 207.5,102.5 206.5,102.5 205.5,102.5C 205.804,101.85 206.137,101.183 206.5,100.5C 205.398,99.8243 204.398,99.1577 203.5,98.5C 203.578,97.3449 203.912,96.0116 204.5,94.5C 205.333,95.5 206.167,96.5 207,97.5C 207.333,97.1667 207.667,96.8333 208,96.5C 208.49,97.7932 208.657,99.1266 208.5,100.5 Z"/></g>
<g><path style="opacity:1" fill="#fc6f62" d="M 192.5,98.5 C 194.228,99.379 196.061,100.046 198,100.5C 199.376,100.316 200.209,99.6491 200.5,98.5C 201.5,98.5 202.5,98.5 203.5,98.5C 204.398,99.1577 205.398,99.8243 206.5,100.5C 206.137,101.183 205.804,101.85 205.5,102.5C 204.589,107.367 205.922,111.367 209.5,114.5C 209.611,115.117 209.944,115.617 210.5,116C 206.72,118.913 202.72,119.08 198.5,116.5C 197.675,114.64 196.675,112.974 195.5,111.5C 195.892,106.859 193.892,104.526 189.5,104.5C 188.508,104.672 187.842,104.338 187.5,103.5C 187.5,100.167 189.167,98.5 192.5,98.5 Z"/></g>
<g><path style="opacity:1" fill="#20158d" d="M 221.5,96.5 C 223.913,97.6798 224.913,99.6798 224.5,102.5C 223.508,102.328 222.842,102.662 222.5,103.5C 221.833,104.167 221.167,104.833 220.5,105.5C 220.08,103.906 219.414,102.406 218.5,101C 218.743,100.098 219.077,99.2646 219.5,98.5C 220.167,97.8333 220.833,97.1667 221.5,96.5 Z"/></g>
<g><path style="opacity:1" fill="#160c7b" d="M 138.5,97.5 C 139.833,99.5 141.5,101.167 143.5,102.5C 145.605,105.402 146.938,105.068 147.5,101.5C 147.554,99.368 148.554,98.0347 150.5,97.5C 152.411,97.5743 153.578,98.5743 154,100.5C 154.959,110.607 154.459,120.607 152.5,130.5C 150.621,129.659 148.621,129.325 146.5,129.5C 146.5,127.833 146.5,126.167 146.5,124.5C 145.5,124.5 144.5,124.5 143.5,124.5C 142.395,123.4 141.062,122.733 139.5,122.5C 138.974,118.064 137.974,113.73 136.5,109.5C 135.063,111.021 134.396,112.855 134.5,115C 134.818,118.123 135.818,120.956 137.5,123.5C 137.5,124.167 137.5,124.833 137.5,125.5C 136.833,125.5 136.167,125.5 135.5,125.5C 132.551,124.386 130.385,122.386 129,119.5C 127.524,114.924 127.19,110.257 128,105.5C 129.32,100.079 132.82,97.4128 138.5,97.5 Z"/></g>
<g><path style="opacity:1" fill="#4447e4" d="M 147.5,101.5 C 146.938,105.068 145.605,105.402 143.5,102.5C 143.52,96.206 144.854,95.8727 147.5,101.5 Z"/></g>
<g><path style="opacity:1" fill="#7f86c9" d="M 181.5,103.5 C 180.167,104.833 178.833,104.833 177.5,103.5C 177.685,101.804 178.519,100.471 180,99.5C 180.507,100.996 180.007,102.163 178.5,103C 179.448,103.483 180.448,103.649 181.5,103.5 Z"/></g>
<g><path style="opacity:1" fill="#fa7669" d="M 208.5,100.5 C 208.833,100.5 209.167,100.5 209.5,100.5C 209.842,101.338 210.508,101.672 211.5,101.5C 213.412,103.657 215.079,105.991 216.5,108.5C 211.83,109.163 209.164,107.163 208.5,102.5C 208.5,101.833 208.5,101.167 208.5,100.5 Z"/></g>
<g><path style="opacity:1" fill="#7c93f3" d="M 224.5,102.5 C 225.961,103.686 227.295,103.686 228.5,102.5C 229.167,102.5 229.5,102.833 229.5,103.5C 227.305,110.607 225.972,117.94 225.5,125.5C 222.978,118.39 221.978,111.057 222.5,103.5C 222.842,102.662 223.508,102.328 224.5,102.5 Z"/></g>
<g><path style="opacity:1" fill="#3431be" d="M 187.5,103.5 C 187.842,104.338 188.508,104.672 189.5,104.5C 187.721,106.344 185.388,107.01 182.5,106.5C 180.883,107.038 179.216,107.371 177.5,107.5C 177.5,107.167 177.5,106.833 177.5,106.5C 177.167,105.833 176.833,105.167 176.5,104.5C 176.5,103.833 176.833,103.5 177.5,103.5C 178.833,104.833 180.167,104.833 181.5,103.5C 183.5,102.167 185.5,102.167 187.5,103.5 Z"/></g>
<g><path style="opacity:1" fill="#a7b9f7" d="M 176.5,104.5 C 176.833,105.167 177.167,105.833 177.5,106.5C 174.909,107.254 173.076,108.921 172,111.5C 170.5,110 169,108.5 167.5,107C 169.047,106.667 170.38,107.167 171.5,108.5C 173.186,107.143 174.852,105.81 176.5,104.5 Z"/></g>
<g><path style="opacity:1" fill="#240f84" d="M 189.5,104.5 C 193.892,104.526 195.892,106.859 195.5,111.5C 194.192,112.232 192.858,113.066 191.5,114C 193.703,116.372 196.037,118.539 198.5,120.5C 198.5,121.5 198.5,122.5 198.5,123.5C 196.5,123.5 194.5,123.5 192.5,123.5C 190.5,123.5 188.5,123.5 186.5,123.5C 184.557,119.867 182.557,116.201 180.5,112.5C 182.086,110.827 182.753,108.827 182.5,106.5C 185.388,107.01 187.721,106.344 189.5,104.5 Z"/></g>
<g><path style="opacity:1" fill="#c6d1f0" d="M 139.5,122.5 C 138.833,122.833 138.167,123.167 137.5,123.5C 135.818,120.956 134.818,118.123 134.5,115C 134.396,112.855 135.063,111.021 136.5,109.5C 137.974,113.73 138.974,118.064 139.5,122.5 Z"/></g>
<g><path style="opacity:1" fill="#fb8d87" d="M 195.5,111.5 C 196.675,112.974 197.675,114.64 198.5,116.5C 202.72,119.08 206.72,118.913 210.5,116C 209.944,115.617 209.611,115.117 209.5,114.5C 212.127,115.092 214.794,115.425 217.5,115.5C 216.539,119.456 214.205,122.123 210.5,123.5C 206.284,123.316 202.284,122.316 198.5,120.5C 196.037,118.539 193.703,116.372 191.5,114C 192.858,113.066 194.192,112.232 195.5,111.5 Z"/></g>
<g><path style="opacity:1" fill="#ee7b75" d="M 182.5,106.5 C 182.753,108.827 182.086,110.827 180.5,112.5C 182.557,116.201 184.557,119.867 186.5,123.5C 181.414,119.327 178.414,113.993 177.5,107.5C 179.216,107.371 180.883,107.038 182.5,106.5 Z"/></g>
<g><path style="opacity:1" fill="#fc6f61" d="M 198.5,120.5 C 202.284,122.316 206.284,123.316 210.5,123.5C 210.5,125.167 210.5,126.833 210.5,128.5C 210.702,130.95 210.369,133.283 209.5,135.5C 204.438,135.726 199.438,135.392 194.5,134.5C 193.598,131.003 192.931,127.337 192.5,123.5C 194.5,123.5 196.5,123.5 198.5,123.5C 198.5,122.5 198.5,121.5 198.5,120.5 Z"/></g>
<g><path style="opacity:1" fill="#bfcff7" d="M 217.5,115.5 C 219.539,116.911 220.539,118.911 220.5,121.5C 219.115,122.574 217.949,123.907 217,125.5C 216.667,124.833 216.333,124.167 216,123.5C 214.296,125.373 212.463,127.04 210.5,128.5C 210.5,126.833 210.5,125.167 210.5,123.5C 214.205,122.123 216.539,119.456 217.5,115.5 Z"/></g>
<g><path style="opacity:1" fill="#4647e9" d="M 205.5,102.5 C 206.5,102.5 207.5,102.5 208.5,102.5C 209.164,107.163 211.83,109.163 216.5,108.5C 217.833,107.5 219.167,106.5 220.5,105.5C 221.167,104.833 221.833,104.167 222.5,103.5C 221.978,111.057 222.978,118.39 225.5,125.5C 225.972,117.94 227.305,110.607 229.5,103.5C 230.609,103.557 231.609,103.89 232.5,104.5C 234.167,106.5 235.833,108.5 237.5,110.5C 240.7,113.902 241.867,117.902 241,122.5C 239.262,125.132 237.095,126.132 234.5,125.5C 232.401,122.336 230.067,122.003 227.5,124.5C 228.766,125.362 230.099,126.029 231.5,126.5C 228.536,126.98 225.536,127.313 222.5,127.5C 222.741,125.102 222.074,123.102 220.5,121.5C 220.539,118.911 219.539,116.911 217.5,115.5C 214.794,115.425 212.127,115.092 209.5,114.5C 205.922,111.367 204.589,107.367 205.5,102.5 Z"/></g>
<g><path style="opacity:1" fill="#91b3fb" d="M 232.5,114.5 C 236.225,116.792 236.392,119.458 233,122.5C 232.503,119.854 232.336,117.187 232.5,114.5 Z"/></g>
<g><path style="opacity:1" fill="#ec9c9c" d="M 139.5,122.5 C 141.062,122.733 142.395,123.4 143.5,124.5C 141.735,125.461 139.735,125.795 137.5,125.5C 137.5,124.833 137.5,124.167 137.5,123.5C 138.167,123.167 138.833,122.833 139.5,122.5 Z"/></g>
<g><path style="opacity:1" fill="#e6939a" d="M 234.5,125.5 C 234.5,125.833 234.5,126.167 234.5,126.5C 233.5,126.5 232.5,126.5 231.5,126.5C 230.099,126.029 228.766,125.362 227.5,124.5C 230.067,122.003 232.401,122.336 234.5,125.5 Z"/></g>
<g><path style="opacity:1" fill="#79c1ec" d="M 106.5,125.5 C 90.5,125.5 74.5,125.5 58.5,125.5C 58.5,136.833 58.5,148.167 58.5,159.5C 59.8333,159.5 61.1667,159.5 62.5,159.5C 61.0813,160.451 59.4147,160.784 57.5,160.5C 57.5,148.5 57.5,136.5 57.5,124.5C 74.0085,124.17 90.3419,124.504 106.5,125.5 Z"/></g>
<g><path style="opacity:1" fill="#92b3f7" d="M 220.5,121.5 C 222.074,123.102 222.741,125.102 222.5,127.5C 220.845,133.484 219.179,139.484 217.5,145.5C 215.079,145.878 212.746,146.545 210.5,147.5C 210.763,143.4 210.43,139.4 209.5,135.5C 210.369,133.283 210.702,130.95 210.5,128.5C 212.463,127.04 214.296,125.373 216,123.5C 216.333,124.167 216.667,124.833 217,125.5C 217.949,123.907 219.115,122.574 220.5,121.5 Z"/></g>
<g><path style="opacity:1" fill="#1b1392" d="M 231.5,126.5 C 232.5,126.5 233.5,126.5 234.5,126.5C 235.923,128.756 236.59,131.256 236.5,134C 235.409,141.423 233.743,148.589 231.5,155.5C 226.77,155.717 222.103,155.383 217.5,154.5C 216.305,154.134 215.639,153.301 215.5,152C 216.274,149.846 216.941,147.679 217.5,145.5C 219.179,139.484 220.845,133.484 222.5,127.5C 225.536,127.313 228.536,126.98 231.5,126.5 Z"/></g>
<g><path style="opacity:1" fill="#4849ea" d="M 143.5,124.5 C 144.5,124.5 145.5,124.5 146.5,124.5C 146.5,126.167 146.5,127.833 146.5,129.5C 148.621,129.325 150.621,129.659 152.5,130.5C 152.5,132.5 152.5,134.5 152.5,136.5C 152.5,137.167 152.5,137.833 152.5,138.5C 152.233,140.965 151.566,143.299 150.5,145.5C 150.167,145.5 149.833,145.5 149.5,145.5C 143.855,144.866 138.189,144.532 132.5,144.5C 130.542,141.515 129.542,138.015 129.5,134C 129.605,132.408 129.939,130.908 130.5,129.5C 132.199,129.66 133.866,129.494 135.5,129C 136.171,128.014 136.171,126.847 135.5,125.5C 136.167,125.5 136.833,125.5 137.5,125.5C 139.735,125.795 141.735,125.461 143.5,124.5 Z"/></g>
<g><path style="opacity:1" fill="#abbdf8" d="M 194.5,137.5 C 194.5,137.833 194.5,138.167 194.5,138.5C 180.5,138.5 166.5,138.5 152.5,138.5C 152.5,137.833 152.5,137.167 152.5,136.5C 159.09,136.811 165.59,136.478 172,135.5C 179.222,137.444 186.722,138.111 194.5,137.5 Z"/></g>
<g><path style="opacity:1" fill="#88a5f6" d="M 139.5,136.5 C 140.833,136.5 142.167,136.5 143.5,136.5C 143.5,137.833 143.5,139.167 143.5,140.5C 142.167,140.5 140.833,140.5 139.5,140.5C 139.5,139.167 139.5,137.833 139.5,136.5 Z"/></g>
<g><path style="opacity:1" fill="#edf0fe" d="M 152.5,138.5 C 166.5,138.5 180.5,138.5 194.5,138.5C 194.5,141.833 194.5,145.167 194.5,148.5C 179.833,148.5 165.167,148.5 150.5,148.5C 150.5,147.5 150.5,146.5 150.5,145.5C 151.566,143.299 152.233,140.965 152.5,138.5 Z"/></g>
<g><path style="opacity:1" fill="#181081" d="M 194.5,134.5 C 199.438,135.392 204.438,135.726 209.5,135.5C 210.43,139.4 210.763,143.4 210.5,147.5C 209.975,158.734 208.642,169.734 206.5,180.5C 205.5,180.5 204.5,180.5 203.5,180.5C 203.5,178.167 203.5,175.833 203.5,173.5C 203.876,164.765 203.376,156.098 202,147.5C 201.49,153.567 200.657,159.567 199.5,165.5C 198.167,170.5 196.833,175.5 195.5,180.5C 194.167,180.5 192.833,180.5 191.5,180.5C 193.337,170.631 194.337,160.631 194.5,150.5C 194.5,149.833 194.5,149.167 194.5,148.5C 194.5,145.167 194.5,141.833 194.5,138.5C 194.5,138.167 194.5,137.833 194.5,137.5C 194.5,136.5 194.5,135.5 194.5,134.5 Z"/></g>
<g><path style="opacity:1" fill="#140e7c" d="M 132.5,144.5 C 138.189,144.532 143.855,144.866 149.5,145.5C 148.664,153.522 147.664,161.522 146.5,169.5C 145.167,169.5 143.833,169.5 142.5,169.5C 142.657,170.873 142.49,172.207 142,173.5C 141.502,170.518 141.335,167.518 141.5,164.5C 142.182,158.173 142.348,151.839 142,145.5C 135.927,156.313 130.427,167.313 125.5,178.5C 124.391,178.443 123.391,178.11 122.5,177.5C 125.833,166.5 129.167,155.5 132.5,144.5 Z"/></g>
<g><path style="opacity:1" fill="#7b95f6" d="M 150.5,148.5 C 165.167,148.5 179.833,148.5 194.5,148.5C 194.5,149.167 194.5,149.833 194.5,150.5C 189.5,150.5 184.5,150.5 179.5,150.5C 179.5,158.167 179.5,165.833 179.5,173.5C 178.5,173.5 177.5,173.5 176.5,173.5C 176.5,165.833 176.5,158.167 176.5,150.5C 167.681,149.952 159.014,149.285 150.5,148.5 Z"/></g>
<g><path style="opacity:1" fill="#859cee" d="M 203.5,173.5 C 202.504,173.586 201.671,173.252 201,172.5C 200.814,169.964 200.314,167.631 199.5,165.5C 200.657,159.567 201.49,153.567 202,147.5C 203.376,156.098 203.876,164.765 203.5,173.5 Z"/></g>
<g><path style="opacity:1" fill="#f7aaa9" d="M 217.5,154.5 C 222.103,155.383 226.77,155.717 231.5,155.5C 231.397,159.749 230.73,163.916 229.5,168C 230.012,171.037 231.012,173.871 232.5,176.5C 232.5,178.833 232.5,181.167 232.5,183.5C 231.917,180.759 230.917,178.092 229.5,175.5C 228.833,174.167 228.167,174.167 227.5,175.5C 228.127,176.417 228.461,177.417 228.5,178.5C 227.396,180.389 226.063,182.055 224.5,183.5C 226.382,179.019 226.882,174.353 226,169.5C 223.155,164.473 220.321,159.473 217.5,154.5 Z"/></g>
<g><path style="opacity:1" fill="#2b2cab" d="M 141.5,164.5 C 141.335,167.518 141.502,170.518 142,173.5C 142.49,172.207 142.657,170.873 142.5,169.5C 143.833,169.5 145.167,169.5 146.5,169.5C 145.54,173.195 145.54,176.861 146.5,180.5C 148.333,181.052 150,181.885 151.5,183C 147.848,183.499 144.182,183.665 140.5,183.5C 140.177,176.978 140.51,170.645 141.5,164.5 Z"/></g>
<g><path style="opacity:1" fill="#321b7b" d="M 232.5,176.5 C 233.497,176.47 234.164,176.97 234.5,178C 233.678,180.434 233.344,182.934 233.5,185.5C 232.127,185.657 230.793,185.49 229.5,185C 230.737,184.768 231.737,184.268 232.5,183.5C 232.5,181.167 232.5,178.833 232.5,176.5 Z"/></g>
<g><path style="opacity:1" fill="#3f4ae1" d="M 122.5,177.5 C 123.391,178.11 124.391,178.443 125.5,178.5C 125.702,180.989 125.202,183.323 124,185.5C 121.8,186.99 119.966,186.657 118.5,184.5C 119.1,181.651 120.433,179.318 122.5,177.5 Z"/></g>
<g><path style="opacity:1" fill="#24207e" d="M 228.5,178.5 C 229.782,179.708 229.782,181.042 228.5,182.5C 227.155,183.347 226.155,184.513 225.5,186C 224.056,186.781 222.723,186.614 221.5,185.5C 222.602,184.824 223.602,184.158 224.5,183.5C 226.063,182.055 227.396,180.389 228.5,178.5 Z"/></g>
<g><path style="opacity:1" fill="#4147e6" d="M 191.5,180.5 C 192.833,180.5 194.167,180.5 195.5,180.5C 195.5,181.833 195.5,183.167 195.5,184.5C 191.486,184.666 187.486,184.499 183.5,184C 185.818,182.007 188.484,180.841 191.5,180.5 Z"/></g>
<g><path style="opacity:1" fill="#4049e5" d="M 203.5,180.5 C 204.5,180.5 205.5,180.5 206.5,180.5C 207.234,181.708 207.567,183.041 207.5,184.5C 205.833,184.5 204.167,184.5 202.5,184.5C 202.433,183.041 202.766,181.708 203.5,180.5 Z"/></g>
<g><path style="opacity:1" fill="#f2f8fd" d="M 66.5,196.5 C 66.1734,201.214 66.5067,205.88 67.5,210.5C 68.1067,210.376 68.44,210.043 68.5,209.5C 72.2688,205.229 76.2688,201.062 80.5,197C 81.635,196.251 82.635,196.417 83.5,197.5C 79.9669,201.197 76.6335,205.03 73.5,209C 77.1062,214.277 81.1062,219.277 85.5,224C 84.0563,224.781 82.723,224.614 81.5,223.5C 78.1896,219.022 74.6896,214.689 71,210.5C 69.6667,211.833 68.3333,213.167 67,214.5C 66.8236,217.882 66.3236,221.215 65.5,224.5C 65.1667,219.833 64.8333,215.167 64.5,210.5C 64.5067,205.449 65.1734,200.783 66.5,196.5 Z"/></g>
<g><path style="opacity:1" fill="#8bcbef" d="M 66.5,196.5 C 67.1667,200.833 67.8333,205.167 68.5,209.5C 68.44,210.043 68.1067,210.376 67.5,210.5C 66.5067,205.88 66.1734,201.214 66.5,196.5 Z"/></g>
<g><path style="opacity:1" fill="#e5f2fb" d="M 93.5,202.5 C 97.8027,201.796 101.303,203.13 104,206.5C 104.83,212.528 104.664,218.528 103.5,224.5C 102.346,222.144 101.013,221.977 99.5,224C 95.0906,225.262 91.2572,224.428 88,221.5C 86.8238,217.74 87.9904,214.907 91.5,213C 94.8168,212.502 98.1501,212.335 101.5,212.5C 101.82,206.003 98.8201,203.836 92.5,206C 91.8448,207.487 90.8448,208.653 89.5,209.5C 88.4173,208.635 88.2506,207.635 89,206.5C 90.3968,204.93 91.8968,203.596 93.5,202.5 Z"/></g>
<g><path style="opacity:1" fill="#f5fafd" d="M 116.5,202.5 C 119.862,202.07 122.695,203.07 125,205.5C 125.831,211.859 125.664,218.193 124.5,224.5C 123.67,218.862 123.17,213.196 123,207.5C 119.381,204.657 116.048,204.99 113,208.5C 112.829,213.864 112.329,219.198 111.5,224.5C 110.167,217.5 110.167,210.5 111.5,203.5C 112.192,204.025 112.692,204.692 113,205.5C 114.145,204.364 115.312,203.364 116.5,202.5 Z"/></g>
<g><path style="opacity:1" fill="#e0f0fa" d="M 131.5,194.5 C 132.5,194.5 133.5,194.5 134.5,194.5C 134.335,198.182 134.501,201.848 135,205.5C 143.965,200.576 148.799,203.409 149.5,214C 148.749,223.956 143.916,226.789 135,222.5C 134.29,223.973 133.124,224.64 131.5,224.5C 131.5,214.5 131.5,204.5 131.5,194.5 Z"/></g>
<g><path style="opacity:1" fill="#e5f2fb" d="M 158.5,202.5 C 162.803,201.796 166.303,203.13 169,206.5C 169.83,212.528 169.664,218.528 168.5,224.5C 167.346,222.144 166.013,221.977 164.5,224C 160.091,225.262 156.257,224.428 153,221.5C 151.824,217.74 152.99,214.907 156.5,213C 159.817,212.502 163.15,212.335 166.5,212.5C 166.82,206.003 163.82,203.836 157.5,206C 156.845,207.487 155.845,208.653 154.5,209.5C 153.417,208.635 153.251,207.635 154,206.5C 155.397,204.93 156.897,203.596 158.5,202.5 Z"/></g>
<g><path style="opacity:1" fill="#f5fafd" d="M 181.5,202.5 C 184.862,202.07 187.695,203.07 190,205.5C 190.831,211.859 190.664,218.193 189.5,224.5C 188.67,218.862 188.17,213.196 188,207.5C 184.381,204.657 181.048,204.99 178,208.5C 177.829,213.864 177.329,219.198 176.5,224.5C 175.167,217.5 175.167,210.5 176.5,203.5C 177.192,204.025 177.692,204.692 178,205.5C 179.145,204.364 180.312,203.364 181.5,202.5 Z"/></g>
<g><path style="opacity:1" fill="#249ae0" d="M 137.5,205.5 C 141.49,204.616 144.323,205.949 146,209.5C 147.193,214.152 146.36,218.319 143.5,222C 140.001,223.12 137.167,222.287 135,219.5C 134.333,215.833 134.333,212.167 135,208.5C 135.698,207.309 136.531,206.309 137.5,205.5 Z"/></g>
<g><path style="opacity:1" fill="#2399e0" d="M 93.5,214.5 C 96.1667,214.5 98.8333,214.5 101.5,214.5C 101.213,222.302 97.7126,224.302 91,220.5C 90.0339,217.66 90.8672,215.66 93.5,214.5 Z"/></g>
<g><path style="opacity:1" fill="#2399e0" d="M 158.5,214.5 C 161.167,214.5 163.833,214.5 166.5,214.5C 166.213,222.302 162.713,224.302 156,220.5C 155.034,217.66 155.867,215.66 158.5,214.5 Z"/></g>
</svg>
